<svg xmlns="http://www.w3.org/2000/svg" version="1.1" xmlns:xlink="http://www.w3.org/1999/xlink" xmlns:svgjs="http://svgjs.dev/svgjs" width="1000" height="750" viewBox="0 0 1000 750"><rect width="1000" height="750" fill="#ffffff"></rect><g transform="matrix(0.834,0,0,0.834,82.49454545454546,115.4193570850203)"><svg viewBox="0 0 396 247" data-background-color="#ffffff" preserveAspectRatio="xMidYMid meet" height="623" width="1000" xmlns="http://www.w3.org/2000/svg" xmlns:xlink="http://www.w3.org/1999/xlink"><g id="tight-bounds" transform="matrix(1,0,0,1,0.2400000000000091,-0.09999999999999432)"><svg viewBox="0 0 395.52 247.2" height="247.2" width="395.52"><g><svg></svg></g><g><svg viewBox="0 0 395.52 247.2" height="247.2" width="395.52"><g transform="matrix(1,0,0,1,75.54432,79.6339376266576)"><svg viewBox="0 0 244.43135999999998 87.9321247466848" height="87.9321247466848" width="244.43135999999998"><g><svg viewBox="0 0 244.43135999999998 87.9321247466848" height="87.9321247466848" width="244.43135999999998"><g><svg viewBox="0 0 244.43135999999998 87.9321247466848" height="87.9321247466848" width="244.43135999999998"><g><svg viewBox="0 0 244.43135999999998 87.9321247466848" height="87.9321247466848" width="244.43135999999998"><g><svg viewBox="0 0 244.43135999999998 87.9321247466848" height="87.9321247466848" width="244.43135999999998"><g><svg viewBox="0 0 244.43135999999998 87.9321247466848" height="87.9321247466848" width="244.43135999999998"><g transform="matrix(1,0,0,1,0,0)"><svg width="244.43135999999998" viewBox="-0.1 -38.35 147.04 52.900000000000006" height="87.9321247466848" data-palette-color="#61777f"><path d="M11.95 0.7L11.95 0.7Q-0.1 0.7-0.1-8.05L-0.1-8.05Q-0.1-9.4 0.2-10.95L0.2-10.95 0.85-14.65 9.85-14.65 9.55-13Q9.35-11.75 9.35-10.45 9.35-9.15 10-8.3L10-8.3Q11-7.05 13.3-7.05 15.6-7.05 17.03-8.3 18.45-9.55 19.05-12.9L19.05-12.9 23.15-36.05 32.1-36.05 27.9-12.2Q26.75-5.55 22.9-2.43 19.05 0.7 11.95 0.7ZM43.25-6.4L43.25-6.4Q44.4-6.4 45.3-6.9L45.3-6.9 45.05-1.25Q42.7 0.7 39.7 0.7L39.7 0.7Q35.15 0.7 33.8-1.4L33.8-1.4Q32.9-2.8 32.9-4.38 32.9-5.95 33.1-7.15L33.1-7.15 36.1-24.05 44.6-24.05 41.8-8.3Q41.75-8 41.75-7.75L41.75-7.75Q41.75-6.4 43.25-6.4ZM37.1-32.2L37.1-32.2Q37.1-35.4 38.52-36.88 39.95-38.35 42.95-38.35L42.95-38.35Q47.15-38.35 47.15-34.65L47.15-34.65Q47.15-31.5 45.72-30.05 44.3-28.6 41.25-28.6L41.25-28.6Q37.1-28.6 37.1-32.2ZM64.45-15.35L64.45-15.35Q64.45-17.5 62.37-17.5 60.3-17.5 58.95-15.95L58.95-15.95 56.15 0 47.65 0 51.9-24.05 59.8-24.05 59.25-21.1Q62.2-24.75 66.7-24.75 71.2-24.75 72.55-22.55L72.55-22.55Q73.4-21.15 73.4-19.35 73.4-17.55 73.15-16L73.15-16 71.8-8.3Q71.75-8 71.75-7.75L71.75-7.75Q71.75-6.4 73.25-6.4L73.25-6.4Q74.4-6.4 75.3-6.9L75.3-6.9 75.05-1.25Q72.7 0.7 69.7 0.7L69.7 0.7Q62.9 0.7 62.9-5L62.9-5Q62.9-6 63.1-7.15L63.1-7.15 64.3-13.8Q64.45-14.7 64.45-15.35ZM100.24 0.8Q99.14 7.15 95.22 10.85 91.29 14.55 86.24 14.55 81.19 14.55 78.97 12.7 76.74 10.85 76.74 7.85L76.74 7.85Q76.74 3.45 82.34 0.2L82.34 0.2Q78.09-1.15 78.09-6.25L78.09-6.25Q78.09-7.5 78.34-9L78.34-9 79.34-14.85Q80.14-19.35 83.04-22.03 85.94-24.7 90.57-24.7 95.19-24.7 96.89-22.45L96.89-22.45 97.19-24.05 104.64-24.05 100.24 0.8ZM87.69-13.85L87.04-10.1Q86.94-9.65 86.94-8.85 86.94-8.05 87.69-7.28 88.44-6.5 90.22-6.5 91.99-6.5 93.29-7.9L93.29-7.9 94.79-16.3Q94.09-17.55 92.14-17.55 90.19-17.55 89.09-16.55 87.99-15.55 87.69-13.85L87.69-13.85ZM87.39 7.4L87.39 7.4Q90.64 7.4 91.64 1.5L91.64 1.5 92.14-1.4Q85.19 1.85 85.19 5.15L85.19 5.15Q85.19 6.15 85.77 6.78 86.34 7.4 87.39 7.4ZM115.39-7.7L115.39-7.7Q115.39-6.4 116.72-6.4 118.04-6.4 118.94-6.9L118.94-6.9 118.69-1.25Q116.29 0.7 113.29 0.7L113.29 0.7Q108.74 0.7 107.39-1.4L107.39-1.4Q106.54-2.75 106.54-4.35 106.54-5.95 106.74-7.15L106.74-7.15 112.19-37.95 120.69-37.95 115.44-8.3Q115.39-8 115.39-7.7ZM132.14 0.7L132.14 0.7Q121.74 0.7 121.74-6.5L121.74-6.5Q121.74-7.5 121.94-8.65L121.94-8.65 122.99-14.85Q123.84-19.65 127.41-22.23 130.99-24.8 136.89-24.8L136.89-24.8Q146.94-24.8 146.94-17.2L146.94-17.2Q146.94-16.1 146.74-14.8L146.74-14.8 146.14-11.25 130.89-11.25 130.69-10.1Q130.59-9.5 130.59-9L130.59-9Q130.59-6.25 133.84-6.25L133.84-6.25Q135.04-6.25 135.89-7 136.74-7.75 136.89-8.75L136.89-8.75 145.19-8.65Q143.54 0.7 132.14 0.7ZM131.39-14.3L138.14-14.3Q138.34-15.15 138.34-15.88 138.34-16.6 137.69-17.35 137.04-18.1 135.61-18.1 134.19-18.1 133.01-17.15 131.84-16.2 131.39-14.3L131.39-14.3Z" opacity="1" transform="matrix(1,0,0,1,0,0)" fill="#61777f" class="undefined-text-0" data-fill-palette-color="primary" id="text-0"></path></svg></g></svg></g></svg></g></svg></g></svg></g></svg></g></svg></g><g><path d="M0 123.6c0-68.262 55.338-123.6 123.6-123.6 48.763 0 90.931 28.238 111.042 69.255l-4.434 0c-19.796-38.755-60.103-65.29-106.608-65.29-66.073 0-119.635 53.562-119.635 119.635 0 66.073 53.562 119.635 119.635 119.635 46.505 0 86.812-26.535 106.608-65.29l4.434 0c-20.112 41.016-62.279 69.255-111.042 69.255-68.262 0-123.6-55.338-123.6-123.6z" fill="#61777f" stroke="transparent" data-fill-palette-color="tertiary"></path></g></svg></g><defs></defs></svg><rect width="395.52" height="247.2" fill="none" stroke="none" visibility="hidden"></rect></g></svg></g></svg>