<svg xmlns="http://www.w3.org/2000/svg" version="1.1" xmlns:xlink="http://www.w3.org/1999/xlink" xmlns:svgjs="http://svgjs.dev/svgjs" width="1000" height="750" viewBox="0 0 1000 750"><rect width="1000" height="750" fill="#ffffff"></rect><g transform="matrix(0.834,0,0,0.834,82.49454545454546,115.4193570850203)"><svg viewBox="0 0 396 247" data-background-color="#ffffff" preserveAspectRatio="xMidYMid meet" height="623" width="1000" xmlns="http://www.w3.org/2000/svg" xmlns:xlink="http://www.w3.org/1999/xlink"><g id="tight-bounds" transform="matrix(1,0,0,1,0.2400000000000091,-0.09999999999999432)"><svg viewBox="0 0 395.52 247.2" height="247.2" width="395.52"><g><svg></svg></g><g><svg viewBox="0 0 395.52 247.2" height="247.2" width="395.52"><g transform="matrix(1,0,0,1,39.55200000000002,105.8374560669456)"><svg viewBox="0 0 316.41599999999994 35.525087866108784" height="35.525087866108784" width="316.41599999999994"><g><svg viewBox="0 0 316.41599999999994 35.525087866108784" height="35.525087866108784" width="316.41599999999994"><g><svg viewBox="0 0 316.41599999999994 35.525087866108784" height="35.525087866108784" width="316.41599999999994"><g><svg viewBox="0 0 316.41599999999994 35.525087866108784" height="35.525087866108784" width="316.41599999999994"><g><svg viewBox="0 0 316.41599999999994 35.525087866108784" height="35.525087866108784" width="316.41599999999994"><g><svg viewBox="0 0 316.41599999999994 35.525087866108784" height="35.525087866108784" width="316.41599999999994"><g transform="matrix(1,0,0,1,0,0)"><svg width="316.41599999999994" viewBox="0.65 -31.95 285.18 32.2" height="35.525087866108784" data-palette-color="#1f29d5"><g class="undefined-text-0" data-fill-palette-color="primary" id="text-0"><path d="M5.55-8.3Q5.55-6 6.2-4.98 6.85-3.95 8.25-3.95L8.25-3.95Q11.75-3.95 13.03-6.8 14.3-9.65 14.3-14.6L14.3-14.6Q14.3-17 14-21.3L14-21.3Q13.7-25.4 13.7-27.4L13.7-27.4Q8.35-27.4 8.35-29.5L8.35-29.5Q8.35-30.75 8.78-31.15 9.2-31.55 10.1-31.55L10.1-31.55Q10.65-31.55 11.3-31.48 11.95-31.4 12.25-31.4L12.25-31.4Q13.25-31.25 14.15-31.25L14.15-31.25Q15.8-31.25 17.2-31.4L17.2-31.4Q19-31.5 19.9-31.5L19.9-31.5Q21.7-31.5 22.43-31.15 23.15-30.8 23.15-29.8L23.15-29.8Q23.15-28.75 22.63-28.33 22.1-27.9 21.1-27.7L21.1-27.7 18.8-27.45Q18.75-24.15 19.2-19.55L19.2-19.55Q19.25-18.85 19.4-16.93 19.55-15 19.55-13.4L19.55-13.4Q19.55-6.9 16.8-3.38 14.05 0.15 8.6 0.15L8.6 0.15Q5.2 0.15 2.93-1.83 0.65-3.8 0.65-7.75L0.65-7.75Q0.65-8.85 1.45-9.53 2.25-10.2 3.6-10.2L3.6-10.2Q4.55-10.2 5.05-9.55 5.55-8.9 5.55-8.3L5.55-8.3ZM36.15-27.6Q36-24.4 36-21.45L36-21.45Q36-18.4 36.4-12.5L36.4-12.5Q36.45-11.6 36.6-8.88 36.75-6.15 36.75-3.9L36.75-3.9Q37.25-3.95 37.82-4.05 38.4-4.15 38.7-4.15L38.7-4.15Q39.8-4.15 40.45-3.6 41.1-3.05 41.1-1.9L41.1-1.9Q41.1-1.15 40.5-0.75 39.9-0.35 38.42-0.18 36.95 0 34.15 0L34.15 0Q31.05 0 29.5-0.2 27.95-0.4 27.35-0.98 26.75-1.55 26.75-2.7L26.75-2.7Q26.75-3.55 27.3-3.85 27.85-4.15 28.85-4.15L28.85-4.15 29.9-4.1 31.55-4 31.3-9.9Q31-14.7 31-18.7L31-18.7Q31-20.85 31.15-24.6L31.15-24.6 31.25-27.35Q29.55-27.25 28.6-27.25L28.6-27.25Q27.5-27.25 27.12-27.65 26.75-28.05 26.75-29.3L26.75-29.3Q26.75-30.7 28.67-31.1 30.6-31.5 34.55-31.5L34.55-31.5Q37.6-31.5 39.12-31.3 40.65-31.1 40.65-30.4L40.65-30.4Q40.65-28.7 39.92-28.18 39.2-27.65 37.15-27.65L37.15-27.65 36.15-27.6ZM67.65-28.1Q67.65-29.55 68.32-30.63 69-31.7 70.34-31.7L70.34-31.7Q71.5-31.7 72.4-31.25 73.3-30.8 73.3-29.75L73.3-29.75Q73.3-27.7 73.09-24L73.09-24Q72.9-20.4 72.9-18.65L72.9-18.65Q72.9-15.9 73.09-11.3L73.09-11.3Q73.3-6.9 73.3-4.85L73.3-4.85Q73.3-3.2 73.25-2.4L73.25-2.4Q73.25-1.6 72.37-0.83 71.5-0.05 69.7-0.05L69.7-0.05Q68.75-0.05 68.07-0.38 67.4-0.7 67.15-1.1L67.15-1.1Q64.8-3.95 60.3-10.8L60.3-10.8Q55.25-18.45 52.05-22.5L52.05-22.5Q52.45-18.9 52.45-13.7L52.45-13.7Q52.45-11.4 52.37-7.73 52.3-4.05 52.15-2.9L52.15-2.9Q51.95-1.45 51.27-0.68 50.6 0.1 49.15 0.1L49.15 0.1Q48.05 0.1 47.52-0.53 47-1.15 46.9-2.7L46.9-2.7Q46.85-4.75 47.15-8.85L47.15-8.85Q47.2-9.5 47.3-11.1 47.4-12.7 47.4-13.95L47.4-13.95Q47.4-17.4 47.05-21.85L47.05-21.85Q46.75-26.75 46.75-29.1L46.75-29.1Q46.75-30.3 47.62-30.95 48.5-31.6 49.65-31.6L49.65-31.6Q50.65-31.6 51.75-31.1L51.75-31.1Q56.05-25.7 63.4-15L63.4-15 68.09-7.8Q68.15-8.6 68.15-10.05L68.15-10.05Q68.15-12.6 68.05-15.55 67.95-18.5 67.9-19.55L67.9-19.55Q67.65-24.4 67.65-28.1L67.65-28.1ZM103.44-24.05Q101.29-25.6 99.74-26.33 98.19-27.05 96.14-27.05L96.14-27.05Q92.04-27.05 89.09-24.95L89.09-24.95Q86.84-23.3 85.74-20.65 84.64-18 84.64-14.7L84.64-14.7Q84.64-11.55 86.09-9.18 87.54-6.8 89.84-5.55 92.14-4.3 94.64-4.3L94.64-4.3Q97.14-4.3 98.97-5.08 100.79-5.85 101.89-7.1L101.89-7.1Q103.59-9.25 103.59-12.8L103.59-12.8Q103.59-13.3 102.79-13.5 101.99-13.7 100.49-13.7L100.49-13.7 96.89-13.65Q95.44-13.65 94.59-14.2 93.74-14.75 93.74-15.6L93.74-15.6Q93.74-16.8 94.54-17.38 95.34-17.95 96.69-17.95L96.69-17.95Q98.29-17.95 100.99-17.75L100.99-17.75Q103.69-17.55 104.89-17.55L104.89-17.55Q106.64-17.55 107.72-16.45 108.79-15.35 108.79-13.25L108.79-13.25Q108.79-11.3 107.94-8.7 107.09-6.1 105.54-4.05L105.54-4.05Q104.04-2.05 101.12-1.03 98.19 0 94.64 0L94.64 0Q91.69 0 88.94-0.95 86.19-1.9 84.34-3.6L84.34-3.6Q82.04-5.75 80.72-8.72 79.39-11.7 79.39-14.65L79.39-14.65Q79.39-18.95 81.42-23.03 83.44-27.1 86.89-29.35L86.89-29.35Q88.39-30.35 91.09-31 93.79-31.65 96.04-31.65L96.04-31.65Q99.54-31.65 102.19-30.58 104.84-29.5 106.24-27.5L106.24-27.5Q106.84-26.6 106.84-25.9L106.84-25.9Q106.84-25.1 106.14-24.4 105.44-23.7 104.74-23.7L104.74-23.7Q104.44-23.7 104.04-23.8 103.64-23.9 103.44-24.05L103.44-24.05ZM117.54-31.75Q118.49-31.75 119.27-31.25 120.04-30.75 120.19-29.5L120.19-29.5Q120.79-25.55 120.97-21.63 121.14-17.7 121.14-12.75L121.14-12.75Q121.14-10.65 120.79-5.1L120.79-5.1Q122.99-4.9 124.19-4.9L124.19-4.9Q125.04-4.9 128.04-5.15L128.04-5.15Q129.79-5.4 131.09-5.4L131.09-5.4Q132.29-5.4 133.29-5.18 134.29-4.95 135.34-4.45L135.34-4.45Q136.39-3.85 136.39-2.6L136.39-2.6Q136.39-1.6 135.77-0.8 135.14 0 134.29 0L134.29 0Q133.69 0 132.39-0.2L132.39-0.2Q130.04-0.55 127.89-0.55L127.89-0.55Q127.19-0.55 126.32-0.48 125.44-0.4 125.04-0.4L125.04-0.4Q123.84-0.25 122.64-0.25L122.64-0.25Q120.19-0.25 118.24-0.5L118.24-0.5Q117.24-0.6 116.24-1.28 115.24-1.95 115.24-3.25L115.24-3.25Q115.24-4 115.44-7.1L115.44-7.1Q115.79-12.25 115.79-14.95L115.79-14.95Q115.79-17.05 115.59-19.35 115.39-21.65 115.34-22.25L115.34-22.25Q114.89-26.5 114.89-29.25L114.89-29.25Q114.89-30.55 115.52-31.15 116.14-31.75 117.54-31.75L117.54-31.75ZM160.74-6.8Q161.69-6.8 162.16-6.08 162.64-5.35 162.64-4.5L162.64-4.5Q162.64-3.45 162.31-3.03 161.99-2.6 161.09-2.15L161.09-2.15Q158.99-1.15 155.89-0.55 152.79 0.05 149.24 0.05L149.24 0.05Q144.79 0.05 142.71-1.45 140.64-2.95 140.16-5.08 139.69-7.2 139.69-10.65L139.69-10.65Q139.69-14.35 139.99-17.93 140.29-21.5 141.04-27.05L141.04-27.05Q141.39-29.45 142.94-30.53 144.49-31.6 146.34-31.6L146.34-31.6Q147.89-31.6 151.39-31.7L151.39-31.7 155.74-31.75Q158.44-31.75 159.64-31.6L159.64-31.6Q161.14-31.3 161.86-30.93 162.59-30.55 162.59-29.65L162.59-29.65Q162.59-28.65 161.91-27.7 161.24-26.75 159.89-26.75L159.89-26.75Q158.34-26.75 155.44-26.95L155.44-26.95Q152.54-27.15 151.09-27.15L151.09-27.15Q149.84-27.15 148.64-27L148.64-27Q147.24-26.9 146.64-26.65 146.04-26.4 145.94-25.8L145.94-25.8Q145.24-20.65 145.24-18.2L145.24-18.2Q146.39-18.05 147.49-18.05L147.49-18.05Q148.89-18.05 150.49-18.2 152.09-18.35 152.54-18.4L152.54-18.4Q155.19-18.65 157.09-18.65L157.09-18.65Q158.19-18.65 158.76-18.25 159.34-17.85 159.34-17.15L159.34-17.15Q159.34-16.05 158.76-15.45 158.19-14.85 156.74-14.55L156.74-14.55Q154.99-14.2 152.41-14 149.84-13.8 147.39-13.8L147.39-13.8Q146.54-13.8 145.04-13.9L145.04-13.9Q144.89-10.85 144.89-8.25L144.89-8.25Q144.89-4.7 149.59-4.7L149.59-4.7Q152.09-4.7 153.74-5.05 155.39-5.4 157.54-6.05L157.54-6.05Q159.54-6.8 160.74-6.8L160.74-6.8Z" fill="#1f29d5" data-fill-palette-color="primary"></path><path d="M190.64-27.75Q191.39-26.85 191.69-26.3 191.99-25.75 191.99-25.25L191.99-25.25Q191.99-24.65 191.22-23.85 190.44-23.05 189.69-23.05L189.69-23.05Q188.69-23.05 188.09-23.35 187.49-23.65 187.09-24.3L187.09-24.3Q186.29-25.5 185.14-26.38 183.99-27.25 181.54-27.25L181.54-27.25Q179.44-27.25 176.77-26.3 174.09-25.35 172.94-23.95L172.94-23.95Q171.94-22.7 171.22-20.15 170.49-17.6 170.49-15.2L170.49-15.2Q170.49-12.3 171.77-9.88 173.04-7.45 175.47-6 177.89-4.55 181.29-4.55L181.29-4.55Q183.14-4.55 185.12-5.28 187.09-6 188.54-7.65L188.54-7.65 188.49-7.65Q189.39-8.6 190.74-8.6L190.74-8.6Q191.54-8.6 192.27-7.9 192.99-7.2 192.99-6.5L192.99-6.5Q192.99-5.75 192.77-5.18 192.54-4.6 191.94-3.9L191.94-3.9Q189.89-1.6 187.09-0.75 184.29 0.1 180.39 0.1L180.39 0.1Q176.94 0.1 173.42-1.55 169.89-3.2 167.99-5.55L167.99-5.55Q166.99-7 166.07-9.73 165.14-12.45 165.14-14.15L165.14-14.15Q165.14-18.5 166.47-22.43 167.79-26.35 170.44-28.7L170.44-28.7Q172.19-30.3 175.49-31.1 178.79-31.9 181.54-31.9L181.54-31.9Q184.89-31.9 186.82-30.98 188.74-30.05 190.64-27.75L190.64-27.75ZM221.19-0.75Q220.54-1.6 220.09-2.63 219.64-3.65 219.14-5.1L219.14-5.1Q219.04-5.35 218.56-6.6 218.09-7.85 217.49-8.75L217.49-8.75Q214.34-8.3 212.34-8.3L212.34-8.3Q211.24-8.3 209.91-8.38 208.59-8.45 207.94-8.45L207.94-8.45Q205.44-8.65 203.94-8.65L203.94-8.65Q203.34-7.85 202.91-6.95 202.49-6.05 201.84-4.25L201.84-4.25Q200.94-1.65 200.29-0.55L200.29-0.55Q199.84 0.2 198.54 0.2L198.54 0.2Q197.44 0.2 196.51-0.28 195.59-0.75 195.59-1.6L195.59-1.6Q195.99-3.5 196.86-5.63 197.74-7.75 199.39-11.3L199.39-11.3 201.39-16.2Q203.04-20.4 204.41-23.4 205.79-26.4 208.04-30.5L208.04-30.5Q208.34-31.1 209.04-31.53 209.74-31.95 210.59-31.95L210.59-31.95Q211.54-31.95 211.96-31.83 212.39-31.7 212.64-31.43 212.89-31.15 213.39-30.3L213.39-30.3Q215.09-27.65 216.31-24.85 217.54-22.05 219.44-17.1L219.44-17.1 220.49-14.45Q221.89-10.85 222.91-8.43 223.94-6 225.19-4L225.19-4Q225.99-2.7 225.99-2.2L225.99-2.2Q225.99-1 225.26-0.38 224.54 0.25 223.39 0.25L223.39 0.25Q221.94 0.25 221.19-0.75L221.19-0.75ZM216.04-12.85Q215.24-14.55 213.74-18.75L213.74-18.75Q212.19-23.25 210.64-25.9L210.64-25.9Q209.69-23.5 207.84-19.7L207.84-19.7Q206.59-17.35 204.99-12.9L204.99-12.9Q208.19-12.5 211.89-12.5L211.89-12.5Q214.54-12.5 216.04-12.85L216.04-12.85ZM227.34-29.15Q227.34-31.3 230.49-31.3L230.49-31.3Q231.84-31.3 235.64-31.2L235.64-31.2Q239.84-31 241.99-31L241.99-31Q243.74-31 246.24-31.2L246.24-31.2Q247.94-31.3 248.39-31.3L248.39-31.3Q251.14-31.2 253.04-30.3L253.04-30.3Q253.59-30.05 253.94-29.7 254.29-29.35 254.29-28.55L254.29-28.55Q254.29-27.45 253.59-26.68 252.89-25.9 251.89-25.9L251.89-25.9Q250.79-25.9 248.69-26.2L248.69-26.2Q246.84-26.55 245.44-26.55L245.44-26.55Q244.09-26.55 243.39-26.5L243.39-26.5Q243.24-24.85 243.24-18.6L243.24-18.6Q243.24-11.15 243.69-3.5L243.69-3.5 243.79-2.05Q243.79 0 241.44 0L241.44 0Q239.59 0 238.94-0.88 238.29-1.75 238.29-3.55L238.29-3.55Q238.29-7.1 238.09-12.4L238.09-12.4Q237.89-16.8 237.89-18.65L237.89-18.65Q237.89-19.9 238.19-26.3L238.19-26.3 232.34-26.25Q229.54-26.25 228.44-26.78 227.34-27.3 227.34-29.15L227.34-29.15ZM280.48-17.9Q280.43-18.7 280.43-20.3L280.43-20.3 280.43-22.2Q280.43-24.1 280.33-25.05L280.33-25.05Q280.23-25.85 280.23-29.2L280.23-29.2Q280.23-30.4 280.96-31.08 281.68-31.75 282.93-31.75L282.93-31.75Q284.53-31.75 285.08-31.05 285.63-30.35 285.63-28.75L285.63-28.75 285.63-26.85 285.58-21.35Q285.53-19.75 285.53-16.55L285.53-16.55 285.58-12.45Q285.63-11.5 285.63-9.8L285.63-9.8Q285.63-8.45 285.73-5.95L285.73-5.95Q285.83-3.65 285.83-2.5L285.83-2.5Q285.83-1.55 285.31-0.75 284.78 0.05 283.88 0.05L283.88 0.05Q280.38 0.05 280.38-2.3L280.38-2.3Q280.38-3.6 280.48-5.2L280.48-5.2Q280.58-6.35 280.58-8.7L280.58-8.7Q280.58-10.35 280.48-13.45L280.48-13.45Q278.13-13.25 272.38-13.25L272.38-13.25Q268.78-13.25 266.78-13.28 264.78-13.3 263.88-13.5L263.88-13.5 263.83-7.75Q263.83-7.2 264.08-4.8L264.08-4.8Q264.33-3.2 264.33-2L264.33-2Q264.33-1.25 263.46-0.58 262.58 0.1 261.83 0.1L261.83 0.1Q260.03 0.1 259.38-0.78 258.73-1.65 258.73-3.45L258.73-3.45 258.68-7.4Q258.63-8.1 258.63-9.35L258.63-9.35Q258.63-11.2 258.53-14.4L258.53-14.4Q258.43-17.3 258.43-18.6L258.43-18.6Q258.43-20.55 258.53-24.05L258.53-24.05Q258.63-27.35 258.63-28.95L258.63-28.95Q258.63-30.55 259.43-31.1 260.23-31.65 261.23-31.65L261.23-31.65Q264.03-31.65 264.03-29.8L264.03-29.8Q264.03-26.5 263.88-23.5L263.88-23.5Q263.78-19.7 263.78-17.95L263.78-17.95Q265.23-17.6 266.83-17.5 268.43-17.4 271.33-17.4L271.33-17.4Q277.23-17.4 280.48-17.9L280.48-17.9Z" fill="#755bb4" data-fill-palette-color="secondary"></path></g></svg></g></svg></g></svg></g></svg></g></svg></g></svg></g></svg></g><g mask="url(#dc0b30ec-8ed2-4517-8135-acfcc91a12e2)"><g transform="matrix(3.772307692307692, 0, 0, 3.772307692307692, 35.55076923076922, 1)"><svg xmlns="http://www.w3.org/2000/svg" xmlns:xlink="http://www.w3.org/1999/xlink" version="1.1" x="0" y="0" viewBox="6.5 18 86 65" enable-background="new 0 0 100 100" xml:space="preserve" height="65" width="86" class="icon-none" data-fill-palette-color="accent" id="none"><g fill="#001f3f" data-fill-palette-color="accent"><path d="M35.845 61.275l-10.72-5.09c-1.209-0.572-1.94-1.463-1.94-2.703v-0.318c0-1.24 0.731-2.131 1.94-2.704l10.72-5.089c0.381-0.191 0.731-0.318 1.177-0.318 1.018-0.031 1.94 0.859 1.94 2.004 0 0.922-0.509 1.559-1.336 1.94l-9.606 4.294 9.606 4.295c0.827 0.381 1.336 1.113 1.336 2.004 0 1.177-0.922 2.004-2.1 1.972C36.513 61.562 36.163 61.435 35.845 61.275z" fill="#001f3f" data-fill-palette-color="accent"></path><path d="M41.889 66.047l12.438-25.988c0.35-0.731 0.922-1.113 1.686-1.113 1.018 0 1.876 0.859 1.876 1.813 0 0.35-0.127 0.7-0.222 0.923L45.229 67.669c-0.35 0.731-0.922 1.113-1.686 1.113-1.018 0-1.876-0.858-1.876-1.813C41.667 66.619 41.793 66.27 41.889 66.047z" fill="#001f3f" data-fill-palette-color="accent"></path><path d="M64.155 45.371l10.72 5.089c1.208 0.573 1.94 1.464 1.94 2.704v0.318c0 1.24-0.731 2.131-1.94 2.703l-10.72 5.09c-0.381 0.191-0.731 0.318-1.177 0.318-1.018 0.031-1.94-0.859-1.94-2.004 0-0.923 0.509-1.559 1.336-1.94l9.606-4.295-9.606-4.294c-0.827-0.381-1.336-1.113-1.336-2.004 0-1.177 0.923-2.004 2.1-1.973C63.487 45.084 63.837 45.212 64.155 45.371z" fill="#001f3f" data-fill-palette-color="accent"></path></g><path d="M92.5 21c0-1.657-1.343-3-3-3h-80c-1.657 0-3 1.343-3 3v59c0 1.657 1.343 3 3 3h80c1.657 0 3-1.343 3-3V21zM26 20.833c1.196 0 2.167 0.97 2.167 2.167s-0.97 2.167-2.167 2.167-2.167-0.97-2.167-2.167S24.804 20.833 26 20.833zM20 20.833c1.196 0 2.167 0.97 2.167 2.167s-0.97 2.167-2.167 2.167-2.167-0.97-2.167-2.167S18.804 20.833 20 20.833zM14 20.833c1.196 0 2.167 0.97 2.167 2.167s-0.97 2.167-2.167 2.167-2.167-0.97-2.167-2.167S12.804 20.833 14 20.833zM88.5 79h-78V29h78V79z" fill="#001f3f" data-fill-palette-color="accent"></path></svg></g></g></svg></g><defs><mask id="dc0b30ec-8ed2-4517-8135-acfcc91a12e2"><rect width="640" height="400" fill="white"></rect><rect width="348.0576" height="52.29832915226778" fill="black" x="145.9712" y="173.8508354238661" id="transform-me" transform="matrix(1,0,0,1,-122.24000000000001,-76.4)"></rect></mask></defs></svg><rect width="395.52" height="247.2" fill="none" stroke="none" visibility="hidden"></rect></g></svg></g></svg>